<svg xmlns="http://www.w3.org/2000/svg" xmlns:xlink="http://www.w3.org/1999/xlink" id="Calque_4" x="0" y="0" version="1.1" viewBox="0 0 256 256" xml:space="preserve" style="enable-background:new 0 0 256 256"><style type="text/css">.st0{fill:url(#SVGID_1_)}.st1{fill:url(#SVGID_2_)}.st2{fill:url(#SVGID_3_)}</style><linearGradient id="SVGID_1_" x1="2.256" x2="253.52" y1="124.563" y2="124.563" gradientTransform="matrix(0.6734 0.7393 -0.7393 0.6734 133.3044 -50.7332)" gradientUnits="userSpaceOnUse"><stop offset="0" style="stop-color:#eceff4"/><stop offset="1" style="stop-color:#eceff4"/></linearGradient><path d="M236.31,74.25l-45.62-50.09C176.77,8.87,155.74,2.18,135.54,6.59L69.35,21.06	c-20.2,4.42-36.51,19.27-42.79,38.97L6,124.59c-6.28,19.7-1.57,41.26,12.36,56.54l45.62,50.09c13.92,15.29,34.95,21.98,55.15,17.57	l66.19-14.47c20.2-4.42,36.51-19.27,42.79-38.97l20.57-64.56C254.95,111.09,250.24,89.54,236.31,74.25z" class="st0"/><linearGradient id="SVGID_2_" x1="-28.319" x2="162.2" y1="129.164" y2="129.164" gradientTransform="matrix(0.9494 -0.3141 0.3141 0.9494 -33.2148 45.4983)" gradientUnits="userSpaceOnUse"><stop offset="0" style="stop-color:#88c0d0"/><stop offset="1" style="stop-color:#5e81ac"/></linearGradient><path d="M128.85,35.96L72.5,54.61c-12.18,4.03-21.28,14.25-23.88,26.81l-12.03,58.12c-2.6,12.56,1.7,25.56,11.28,34.09	l44.32,39.48c9.58,8.53,22.98,11.31,35.16,7.28l56.35-18.65c12.18-4.03,21.28-14.25,23.88-26.81l12.03-58.12	c2.6-12.56-1.7-25.56-11.28-34.09l-44.32-39.48C154.43,34.7,141.03,31.93,128.85,35.96z" class="st1"/><linearGradient id="SVGID_3_" x1="66.468" x2="188.144" y1="129.014" y2="129.014" gradientTransform="matrix(0.8445 -0.5355 0.5355 0.8445 -48.7578 86.3846)" gradientUnits="userSpaceOnUse"><stop offset="0" style="stop-color:#d8dee9"/><stop offset="1" style="stop-color:#d8dee9"/></linearGradient><path d="M116.74,69.07L80.03,92.34c-5.24,3.32-8.31,9.19-8.06,15.39l1.8,43.43c0.26,6.2,3.8,11.8,9.3,14.67l38.51,20.15	c5.5,2.88,12.12,2.6,17.36-0.72l36.71-23.27c5.24-3.32,8.31-9.19,8.06-15.39l-1.8-43.43c-0.26-6.2-3.8-11.8-9.3-14.67L134.1,68.35	C128.6,65.47,121.98,65.74,116.74,69.07z" class="st2"/></svg>