<svg xmlns="http://www.w3.org/2000/svg" width="356" height="356" fill="none" viewBox="0 0 356 356"><path fill="#EFF1F5" d="M328.619 103.254L265.178 33.5975C245.821 12.3349 216.576 3.03161 188.485 9.16426L96.4398 29.2866C68.3492 35.4332 45.6681 56.0839 36.935 83.4793L8.34377 173.258C-0.389359 200.653 6.16048 230.635 25.5319 251.884L88.9722 321.54C108.33 342.803 137.575 352.106 165.665 345.974L257.711 325.851C285.801 319.705 308.482 299.054 317.215 271.659L345.821 181.88C354.54 154.485 347.99 124.517 328.619 103.254Z"/><path fill="url(#paint0_linear_2_16)" d="M179.182 50.0069L100.82 75.9421C83.8825 81.5463 71.2278 95.7585 67.6122 113.225L50.8829 194.048C47.2673 211.514 53.247 229.592 66.5692 241.454L128.202 296.356C141.524 308.218 160.158 312.084 177.096 306.48L255.458 280.545C272.396 274.941 285.05 260.728 288.666 243.262L305.395 162.439C309.011 144.973 303.031 126.895 289.709 115.033L228.076 60.1307C214.754 48.2547 196.12 44.4027 179.182 50.0069Z"/><path fill="#DCE0E8" d="M162.342 96.0505L111.292 128.41C104.005 133.027 99.7356 141.19 100.083 149.812L102.586 210.207C102.948 218.829 107.871 226.616 115.519 230.607L169.072 258.628C176.721 262.633 185.927 262.244 193.213 257.627L244.263 225.267C251.55 220.65 255.819 212.488 255.472 203.866L252.969 143.471C252.607 134.849 247.684 127.061 240.036 123.07L186.483 95.0492C178.834 91.0442 169.628 91.4197 162.342 96.0505Z"/><defs><linearGradient id="paint0_linear_2_16" x1="-27.159" x2="224.375" y1="246.17" y2="162.952" gradientUnits="userSpaceOnUse"><stop stop-color="#F5BDE6"/><stop offset="1" stop-color="#C6A0F6"/></linearGradient></defs></svg>